<svg xmlns="http://www.w3.org/2000/svg" viewBox="7.789473684210527 -10.318306964376697 648.421052631579 257.95767410941744" font-family="&#39;Noto Sans TC&#39;, &#39;Heiti TC&#39;, &#39;Arial Unicode MS&#39;, &#39;Microsoft JhengHei&#39;, sans-serif" width="100%" height="100%" style=""><g id="infographic-container" x="0" y="0" width="744" height="259"><g x="273" y="0" width="198" height="35" transform="translate(273, 0)"><g width="198" height="35"><foreignObject overflow="visible" x="0" y="0" width="198" height="35" data-element-type="title" data-x="0" data-y="0" data-horizontal-align="CENTER" data-vertical-align="TOP"><span xmlns="http://www.w3.org/1999/xhtml" style="overflow: visible; color: rgb(38, 38, 38); font-size: 24px; line-height: 1.4; width: 100%; height: 100%; display: flex; flex-wrap: wrap; word-break: break-word; white-space: pre-wrap; text-align: center; place-content: flex-start center; align-items: flex-start;">人均年度訓練時數</span></foreignObject></g></g><g width="744" height="224" x="0" y="35" transform="translate(0, 35)"><g><path d="M160 24 L160 172" stroke="#262626" stroke-opacity="0.08" data-element-type="shape"></path><path d="M262.6737967914438 24 L262.6737967914438 172" stroke="#262626" stroke-opacity="0.08" data-element-type="shape"></path><path d="M365.34759358288767 24 L365.34759358288767 172" stroke="#262626" stroke-opacity="0.08" data-element-type="shape"></path><path d="M468.02139037433153 24 L468.02139037433153 172" stroke="#262626" stroke-opacity="0.08" data-element-type="shape"></path><path d="M570.6951871657753 24 L570.6951871657753 172" stroke="#262626" stroke-opacity="0.08" data-element-type="shape"></path></g><g><rect x="160" y="24" width="436.3636363636363" height="28" fill="#1783FF" rx="6" ry="6" data-element-type="shape"></rect><rect x="160" y="64" width="318.2887700534759" height="28" fill="#00C9C9" rx="6" ry="6" data-element-type="shape"></rect><rect x="160" y="104" width="195.08021390374327" height="28" fill="#F0884D" rx="6" ry="6" data-element-type="shape"></rect><rect x="160" y="144" width="154.01069518716577" height="28" fill="#D580FF" rx="6" ry="6" data-element-type="shape"></rect></g><g><g x="604.3636363636363" y="38" transform="translate(604.3636363636363, 38)" width="23" height="20"><text data-element-type="text" width="23" height="20" x="0" y="0" data-x="0" data-y="0" fill="#1783FF" font-size="14" text-anchor="start" dominant-baseline="central" data-horizontal-align="LEFT" data-vertical-align="MIDDLE" font-weight="bold" style="user-select: none; pointer-events: none;">8.5</text></g><g x="486.2887700534759" y="78" transform="translate(486.2887700534759, 78)" width="23" height="20"><text data-element-type="text" width="23" height="20" x="0" y="0" data-x="0" data-y="0" fill="#00C9C9" font-size="14" text-anchor="start" dominant-baseline="central" data-horizontal-align="LEFT" data-vertical-align="MIDDLE" font-weight="bold" style="user-select: none; pointer-events: none;">6.2</text></g><g x="363.08021390374324" y="118" transform="translate(363.08021390374324, 118)" width="23" height="20"><text data-element-type="text" width="23" height="20" x="0" y="0" data-x="0" data-y="0" fill="#F0884D" font-size="14" text-anchor="start" dominant-baseline="central" data-horizontal-align="LEFT" data-vertical-align="MIDDLE" font-weight="bold" style="user-select: none; pointer-events: none;">3.8</text></g><g x="322.01069518716577" y="158" transform="translate(322.01069518716577, 158)" width="10" height="20"><text data-element-type="text" width="10" height="20" x="0" y="0" data-x="0" data-y="0" fill="#D580FF" font-size="14" text-anchor="start" dominant-baseline="central" data-horizontal-align="LEFT" data-vertical-align="MIDDLE" font-weight="bold" style="user-select: none; pointer-events: none;">3</text></g></g><g></g><g><path d="M160 180 L640 180" stroke="#262626" data-element-type="shape"></path><path d="M159.5 180 L159.5 186" stroke="#262626" data-element-type="shape"></path><g x="160" y="194" transform="translate(160, 194)" width="8" height="18"><text data-element-type="text" width="8" height="18" x="0" y="0" data-x="0" data-y="0" fill="#262626" font-size="12" text-anchor="middle" dominant-baseline="central" data-horizontal-align="CENTER" data-vertical-align="MIDDLE" style="user-select: none; pointer-events: none;">0</text></g><path d="M262.1737967914438 180 L262.1737967914438 186" stroke="#262626" data-element-type="shape"></path><g x="262.6737967914438" y="194" transform="translate(262.6737967914438, 194)" width="8" height="18"><text data-element-type="text" width="8" height="18" x="0" y="0" data-x="0" data-y="0" fill="#262626" font-size="12" text-anchor="middle" dominant-baseline="central" data-horizontal-align="CENTER" data-vertical-align="MIDDLE" style="user-select: none; pointer-events: none;">2</text></g><path d="M364.84759358288767 180 L364.84759358288767 186" stroke="#262626" data-element-type="shape"></path><g x="365.34759358288767" y="194" transform="translate(365.34759358288767, 194)" width="8" height="18"><text data-element-type="text" width="8" height="18" x="0" y="0" data-x="0" data-y="0" fill="#262626" font-size="12" text-anchor="middle" dominant-baseline="central" data-horizontal-align="CENTER" data-vertical-align="MIDDLE" style="user-select: none; pointer-events: none;">4</text></g><path d="M467.52139037433153 180 L467.52139037433153 186" stroke="#262626" data-element-type="shape"></path><g x="468.02139037433153" y="194" transform="translate(468.02139037433153, 194)" width="8" height="18"><text data-element-type="text" width="8" height="18" x="0" y="0" data-x="0" data-y="0" fill="#262626" font-size="12" text-anchor="middle" dominant-baseline="central" data-horizontal-align="CENTER" data-vertical-align="MIDDLE" style="user-select: none; pointer-events: none;">6</text></g><path d="M570.1951871657753 180 L570.1951871657753 186" stroke="#262626" data-element-type="shape"></path><g x="570.6951871657753" y="194" transform="translate(570.6951871657753, 194)" width="8" height="18"><text data-element-type="text" width="8" height="18" x="0" y="0" data-x="0" data-y="0" fill="#262626" font-size="12" text-anchor="middle" dominant-baseline="central" data-horizontal-align="CENTER" data-vertical-align="MIDDLE" style="user-select: none; pointer-events: none;">8</text></g></g><g data-element-type="items-group"><g x="24" y="28" transform="translate(24, 28)" width="120" height="20"><foreignObject overflow="visible" x="0" y="0" width="120" height="20" data-element-type="item-label" data-x="0" data-y="0" data-horizontal-align="RIGHT" data-vertical-align="TOP" data-indexes="0"><span xmlns="http://www.w3.org/1999/xhtml" style="overflow: visible; color: rgb(38, 38, 38); font-size: 14px; line-height: 1.4; width: 100%; height: 100%; display: flex; flex-wrap: wrap; word-break: break-word; white-space: pre-wrap; text-align: right; place-content: flex-start flex-end; align-items: flex-start;">資安</span></foreignObject></g><g x="24" y="68" transform="translate(24, 68)" width="120" height="20"><foreignObject overflow="visible" x="0" y="0" width="120" height="20" data-element-type="item-label" data-x="0" data-y="0" data-horizontal-align="RIGHT" data-vertical-align="TOP" data-indexes="1"><span xmlns="http://www.w3.org/1999/xhtml" style="overflow: visible; color: rgb(38, 38, 38); font-size: 14px; line-height: 1.4; width: 100%; height: 100%; display: flex; flex-wrap: wrap; word-break: break-word; white-space: pre-wrap; text-align: right; place-content: flex-start flex-end; align-items: flex-start;">軟體技能</span></foreignObject></g><g x="24" y="108" transform="translate(24, 108)" width="120" height="20"><foreignObject overflow="visible" x="0" y="0" width="120" height="20" data-element-type="item-label" data-x="0" data-y="0" data-horizontal-align="RIGHT" data-vertical-align="TOP" data-indexes="2"><span xmlns="http://www.w3.org/1999/xhtml" style="overflow: visible; color: rgb(38, 38, 38); font-size: 14px; line-height: 1.4; width: 100%; height: 100%; display: flex; flex-wrap: wrap; word-break: break-word; white-space: pre-wrap; text-align: right; place-content: flex-start flex-end; align-items: flex-start;">ESG</span></foreignObject></g><g x="24" y="148" transform="translate(24, 148)" width="120" height="20"><foreignObject overflow="visible" x="0" y="0" width="120" height="20" data-element-type="item-label" data-x="0" data-y="0" data-horizontal-align="RIGHT" data-vertical-align="TOP" data-indexes="3"><span xmlns="http://www.w3.org/1999/xhtml" style="overflow: visible; color: rgb(38, 38, 38); font-size: 14px; line-height: 1.4; width: 100%; height: 100%; display: flex; flex-wrap: wrap; word-break: break-word; white-space: pre-wrap; text-align: right; place-content: flex-start flex-end; align-items: flex-start;">溝通管理</span></foreignObject></g></g></g></g></svg>