<svg xmlns="http://www.w3.org/2000/svg" viewBox="86.84231728001645 78.27121900475544 526.3146330180921 543.457561990489" font-family="&#39;Noto Sans TC&#39;, &#39;Heiti TC&#39;, &#39;Arial Unicode MS&#39;, &#39;Microsoft JhengHei&#39;, sans-serif" width="100%" height="100%" style=""><g id="infographic-container"><g><path id="shape-sector" d="M 352.1816338745935 100.00951923395718       A 250 250 0 0 1 356.5442370769683 599.9143312438894       L 354.2751517914463 469.92382197528605       A 120 120 0 0 0 352.1815413824962 230.0198313170195       Z" fill="#1783FF" width="700" height="700" data-element-type="shape"></path><path id="shape-sector" d="M 347.81836612540656 599.9904807660428       A 250 250 0 0 1 343.4557629230316 100.08566875611069       L 345.72484820855357 230.07617802471398       A 120 120 0 0 0 347.8184586175038 469.9801686829805       Z" fill="#00C9C9" width="700" height="700" data-element-type="shape"></path></g><ellipse id="shape-center-circle" x="242" y="242" width="216" height="216" fill="#2d5a3d1a" fill-opacity="0.5" data-element-type="shape" cx="350" cy="350" rx="108" ry="108"></ellipse><g x="274.4" y="274.4" transform="translate(274.4, 274.4)" width="151.2" height="151.2"><foreignObject overflow="visible" x="0" y="0" width="151.2" height="151.2" data-element-type="title" data-x="0" data-y="0" data-horizontal-align="CENTER" data-vertical-align="MIDDLE"><span xmlns="http://www.w3.org/1999/xhtml" style="overflow: visible; color: rgb(38, 38, 38); font-weight: bold; font-size: 24px; width: 100%; height: 100%; display: flex; flex-wrap: wrap; word-break: break-word; white-space: pre-wrap; text-align: center; place-content: center; align-items: center;">2025 用電來源</span></foreignObject></g><g data-element-type="items-group"><g x="476.49295576687166" y="289.8855909328008" transform="translate(476.49295576687166, 289.8855909328008)" width="117" height="117"><foreignObject overflow="visible" x="0" y="0" width="117" height="117" data-element-type="item-label" data-x="0" data-y="0" data-horizontal-align="CENTER" data-vertical-align="MIDDLE" data-indexes="0"><span xmlns="http://www.w3.org/1999/xhtml" style="overflow: visible; color: rgb(255, 255, 255); font-size: 14px; line-height: 1.4; width: 100%; height: 100%; display: flex; flex-wrap: wrap; word-break: break-word; white-space: pre-wrap; text-align: center; place-content: center; align-items: center;">再生能源</span></foreignObject></g><g x="106.50704423312831" y="293.1144090671993" transform="translate(106.50704423312831, 293.1144090671993)" width="117" height="117"><foreignObject overflow="visible" x="0" y="0" width="117" height="117" data-element-type="item-label" data-x="0" data-y="0" data-horizontal-align="CENTER" data-vertical-align="MIDDLE" data-indexes="1"><span xmlns="http://www.w3.org/1999/xhtml" style="overflow: visible; color: rgb(255, 255, 255); font-size: 14px; line-height: 1.4; width: 100%; height: 100%; display: flex; flex-wrap: wrap; word-break: break-word; white-space: pre-wrap; text-align: center; place-content: center; align-items: center;">一般電網</span></foreignObject></g></g><g data-element-type="btns-group" width="0" height="0" display="none"><rect fill="#F9C0C0" fill-opacity="0.3" width="20" height="20" data-indexes="0" data-element-type="btn-remove" x="599.9900999966845" y="337.73110077042276"></rect><rect fill="#B9EBCA" fill-opacity="0.3" width="20" height="20" data-indexes="1" data-element-type="btn-add" x="341.6144090671992" y="524.9929557668717"></rect><rect fill="#F9C0C0" fill-opacity="0.3" width="20" height="20" data-indexes="1" data-element-type="btn-remove" x="80.00990000331547" y="342.26889922957736"></rect><rect fill="#B9EBCA" fill-opacity="0.3" width="20" height="20" data-indexes="2" data-element-type="btn-add" x="338.3855909328009" y="155.0070442331283"></rect><rect fill="#B9EBCA" fill-opacity="0.3" width="20" height="20" data-indexes="0" data-element-type="btn-add" x="338.3855909328008" y="155.0070442331283"></rect></g></g></svg>