<svg xmlns="http://www.w3.org/2000/svg" viewBox="-22.63157894736842 -28.130434782608695 905.2631578947369 703.2608695652175" font-family="&#39;Noto Sans TC&#39;, &#39;Heiti TC&#39;, &#39;Arial Unicode MS&#39;, &#39;Microsoft JhengHei&#39;, sans-serif" width="100%" height="100%" style=""><g id="infographic-container" x="0" y="0" width="860" height="647"><g x="266" y="0" width="328" height="35" transform="translate(266, 0)"><g width="328" height="35"><foreignObject overflow="visible" x="0" y="0" width="328" height="35" data-element-type="title" data-x="0" data-y="0" data-horizontal-align="CENTER" data-vertical-align="TOP"><span xmlns="http://www.w3.org/1999/xhtml" style="overflow: visible; color: rgb(38, 38, 38); font-size: 24px; line-height: 1.4; width: 100%; height: 100%; display: flex; flex-wrap: wrap; word-break: break-word; white-space: pre-wrap; text-align: center; place-content: flex-start center; align-items: flex-start;">2026–2027 ESG 推進路線圖</span></foreignObject></g></g><g width="860" height="612" x="0" y="35" transform="translate(0, 35)"><path width="400" height="612" d="M 630 0 L 290 0 A 60 60 0 0 0 290 120 L 290 120 L 570 120 A 36 36 0 0 1 570 192 L 570 192 L 290 192 A 60 60 0 0 0 290 312 L 290 312 L 570 312 A 36 36 0 0 1 570 384 L 570 384 L 290 384 A 60 60 0 0 0 290 504 L 290 504 L 570 504 A 36 36 0 0 1 570 576 L 430 576 L 430 564 L 406 588 L 430 612 L 430 600 L 570 600 A 60 60 0 0 0 570 480 L 570 480 L 290 480 A 36 36 0 0 1 290 408 L 290 408 L 570 408 A 60 60 0 0 0 570 288 L 570 288 L 290 288 A 36 36 0 0 1 290 216 L 290 216 L 570 216 A 60 60 0 0 0 570 96 L 570 96 L 290 96 A 36 36 0 0 1 290 24 L 290 24 L 630 24 Z" fill="#666666" stroke="#666666" stroke-width="4" stroke-linecap="round" stroke-linejoin="round" data-element-type="shape"></path><path d="M 630 12 L 290 12 A 48 48 0 0 0 290 108 L 570 108 A 48 48 0 0 1 570 204 L 570 204 L 290 204 A 48 48 0 0 0 290 300 L 570 300 A 48 48 0 0 1 570 396 L 570 396 L 290 396 A 48 48 0 0 0 290 492 L 570 492 A 48 48 0 0 1 570 588 L 430 588" stroke="white" fill="none" stroke-width="3" stroke-dasharray="8 8" stroke-linecap="round" stroke-linejoin="round" data-element-type="shape"></path><g x="265" y="35" width="50" height="50" data-element-type="item-icon-group" transform="translate(265, 35)"><ellipse width="50" height="50" fill="#1783FF" data-element-type="shape" cx="25" cy="25" rx="25" ry="25"></ellipse></g><g x="545" y="131" width="50" height="50" data-element-type="item-icon-group" transform="translate(545, 131)"><ellipse width="50" height="50" fill="#00C9C9" data-element-type="shape" cx="25" cy="25" rx="25" ry="25"></ellipse></g><g x="265" y="227" width="50" height="50" data-element-type="item-icon-group" transform="translate(265, 227)"><ellipse width="50" height="50" fill="#F0884D" data-element-type="shape" cx="25" cy="25" rx="25" ry="25"></ellipse></g><g x="545" y="323" width="50" height="50" data-element-type="item-icon-group" transform="translate(545, 323)"><ellipse width="50" height="50" fill="#D580FF" data-element-type="shape" cx="25" cy="25" rx="25" ry="25"></ellipse></g><g x="265" y="419" width="50" height="50" data-element-type="item-icon-group" transform="translate(265, 419)"><ellipse width="50" height="50" fill="#7863FF" data-element-type="shape" cx="25" cy="25" rx="25" ry="25"></ellipse></g><g x="545" y="515" width="50" height="50" data-element-type="item-icon-group" transform="translate(545, 515)"><ellipse width="50" height="50" fill="#60C42D" data-element-type="shape" cx="25" cy="25" rx="25" ry="25"></ellipse></g><g x="325" y="45" transform="translate(325, 45)" width="40" height="43"><text data-element-type="text" width="40" height="43" x="0" y="0" data-x="0" data-y="0" fill="#1783FF" font-size="30" text-anchor="start" dominant-baseline="hanging" data-horizontal-align="LEFT" data-vertical-align="TOP" style="user-select: none; pointer-events: none;">01</text></g><g x="495" y="141" transform="translate(495, 141)" width="40" height="43"><text data-element-type="text" width="40" height="43" x="40" y="0" data-x="0" data-y="0" fill="#00C9C9" font-size="30" text-anchor="end" dominant-baseline="hanging" data-horizontal-align="RIGHT" data-vertical-align="TOP" style="user-select: none; pointer-events: none;">02</text></g><g x="325" y="237" transform="translate(325, 237)" width="40" height="43"><text data-element-type="text" width="40" height="43" x="0" y="0" data-x="0" data-y="0" fill="#F0884D" font-size="30" text-anchor="start" dominant-baseline="hanging" data-horizontal-align="LEFT" data-vertical-align="TOP" style="user-select: none; pointer-events: none;">03</text></g><g x="495" y="333" transform="translate(495, 333)" width="40" height="43"><text data-element-type="text" width="40" height="43" x="40" y="0" data-x="0" data-y="0" fill="#D580FF" font-size="30" text-anchor="end" dominant-baseline="hanging" data-horizontal-align="RIGHT" data-vertical-align="TOP" style="user-select: none; pointer-events: none;">04</text></g><g x="325" y="429" transform="translate(325, 429)" width="40" height="43"><text data-element-type="text" width="40" height="43" x="0" y="0" data-x="0" data-y="0" fill="#7863FF" font-size="30" text-anchor="start" dominant-baseline="hanging" data-horizontal-align="LEFT" data-vertical-align="TOP" style="user-select: none; pointer-events: none;">05</text></g><g x="495" y="525" transform="translate(495, 525)" width="40" height="43"><text data-element-type="text" width="40" height="43" x="40" y="0" data-x="0" data-y="0" fill="#60C42D" font-size="30" text-anchor="end" dominant-baseline="hanging" data-horizontal-align="RIGHT" data-vertical-align="TOP" style="user-select: none; pointer-events: none;">06</text></g><g x="0" y="25" transform="translate(0, 25)"><g width="200" height="26"><foreignObject overflow="visible" x="0" y="0" width="200" height="26" data-element-type="item-label" data-x="0" data-y="0" data-horizontal-align="RIGHT" data-vertical-align="MIDDLE" data-indexes="0"><span xmlns="http://www.w3.org/1999/xhtml" style="overflow: visible; color: rgb(38, 38, 38); font-weight: bold; font-size: 18px; line-height: 1.4; width: 100%; height: 100%; display: flex; flex-wrap: wrap; word-break: break-word; white-space: pre-wrap; text-align: right; place-content: center flex-end; align-items: center;">2H 2025</span></foreignObject></g><g x="0" y="30" transform="translate(0, 30)" width="200" height="40"><foreignObject overflow="visible" x="0" y="0" width="200" height="40" data-element-type="item-desc" data-x="0" data-y="0" data-horizontal-align="RIGHT" data-vertical-align="TOP" data-word-wrap="true" data-indexes="0"><span xmlns="http://www.w3.org/1999/xhtml" style="overflow: visible; color: rgb(90, 90, 90); font-size: 14px; line-height: 1.4; width: 100%; height: 100%; display: flex; flex-wrap: wrap; word-break: break-word; white-space: pre-wrap; text-align: right; place-content: flex-start flex-end; align-items: flex-start;">完成盤查、供應商簽署</span></foreignObject></g></g><g x="660" y="121" transform="translate(660, 121)"><g width="200" height="26"><foreignObject overflow="visible" x="0" y="0" width="200" height="26" data-element-type="item-label" data-x="0" data-y="0" data-horizontal-align="LEFT" data-vertical-align="MIDDLE" data-indexes="1"><span xmlns="http://www.w3.org/1999/xhtml" style="overflow: visible; color: rgb(38, 38, 38); font-weight: bold; font-size: 18px; line-height: 1.4; width: 100%; height: 100%; display: flex; flex-wrap: wrap; word-break: break-word; white-space: pre-wrap; text-align: left; place-content: center flex-start; align-items: center;">2026 Q1</span></foreignObject></g><g x="0" y="30" transform="translate(0, 30)" width="200" height="40"><foreignObject overflow="visible" x="0" y="0" width="200" height="40" data-element-type="item-desc" data-x="0" data-y="0" data-horizontal-align="LEFT" data-vertical-align="TOP" data-word-wrap="true" data-indexes="1"><span xmlns="http://www.w3.org/1999/xhtml" style="overflow: visible; color: rgb(90, 90, 90); font-size: 14px; line-height: 1.4; width: 100%; height: 100%; display: flex; flex-wrap: wrap; word-break: break-word; white-space: pre-wrap; text-align: left; place-content: flex-start; align-items: flex-start;">零碳產品線上線</span></foreignObject></g></g><g x="0" y="217" transform="translate(0, 217)"><g width="200" height="26"><foreignObject overflow="visible" x="0" y="0" width="200" height="26" data-element-type="item-label" data-x="0" data-y="0" data-horizontal-align="RIGHT" data-vertical-align="MIDDLE" data-indexes="2"><span xmlns="http://www.w3.org/1999/xhtml" style="overflow: visible; color: rgb(38, 38, 38); font-weight: bold; font-size: 18px; line-height: 1.4; width: 100%; height: 100%; display: flex; flex-wrap: wrap; word-break: break-word; white-space: pre-wrap; text-align: right; place-content: center flex-end; align-items: center;">2026 Q3</span></foreignObject></g><g x="0" y="30" transform="translate(0, 30)" width="200" height="40"><foreignObject overflow="visible" x="0" y="0" width="200" height="40" data-element-type="item-desc" data-x="0" data-y="0" data-horizontal-align="RIGHT" data-vertical-align="TOP" data-word-wrap="true" data-indexes="2"><span xmlns="http://www.w3.org/1999/xhtml" style="overflow: visible; color: rgb(90, 90, 90); font-size: 14px; line-height: 1.4; width: 100%; height: 100%; display: flex; flex-wrap: wrap; word-break: break-word; white-space: pre-wrap; text-align: right; place-content: flex-start flex-end; align-items: flex-start;">ISO 27001 驗證通過</span></foreignObject></g></g><g x="660" y="313" transform="translate(660, 313)"><g width="200" height="26"><foreignObject overflow="visible" x="0" y="0" width="200" height="26" data-element-type="item-label" data-x="0" data-y="0" data-horizontal-align="LEFT" data-vertical-align="MIDDLE" data-indexes="3"><span xmlns="http://www.w3.org/1999/xhtml" style="overflow: visible; color: rgb(38, 38, 38); font-weight: bold; font-size: 18px; line-height: 1.4; width: 100%; height: 100%; display: flex; flex-wrap: wrap; word-break: break-word; white-space: pre-wrap; text-align: left; place-content: center flex-start; align-items: center;">2026 Q4</span></foreignObject></g><g x="0" y="30" transform="translate(0, 30)" width="200" height="40"><foreignObject overflow="visible" x="0" y="0" width="200" height="40" data-element-type="item-desc" data-x="0" data-y="0" data-horizontal-align="LEFT" data-vertical-align="TOP" data-word-wrap="true" data-indexes="3"><span xmlns="http://www.w3.org/1999/xhtml" style="overflow: visible; color: rgb(90, 90, 90); font-size: 14px; line-height: 1.4; width: 100%; height: 100%; display: flex; flex-wrap: wrap; word-break: break-word; white-space: pre-wrap; text-align: left; place-content: flex-start; align-items: flex-start;">綠色電力 50%</span></foreignObject></g></g><g x="0" y="409" transform="translate(0, 409)"><g width="200" height="26"><foreignObject overflow="visible" x="0" y="0" width="200" height="26" data-element-type="item-label" data-x="0" data-y="0" data-horizontal-align="RIGHT" data-vertical-align="MIDDLE" data-indexes="4"><span xmlns="http://www.w3.org/1999/xhtml" style="overflow: visible; color: rgb(38, 38, 38); font-weight: bold; font-size: 18px; line-height: 1.4; width: 100%; height: 100%; display: flex; flex-wrap: wrap; word-break: break-word; white-space: pre-wrap; text-align: right; place-content: center flex-end; align-items: center;">2027 Q2</span></foreignObject></g><g x="0" y="30" transform="translate(0, 30)" width="200" height="40"><foreignObject overflow="visible" x="0" y="0" width="200" height="40" data-element-type="item-desc" data-x="0" data-y="0" data-horizontal-align="RIGHT" data-vertical-align="TOP" data-word-wrap="true" data-indexes="4"><span xmlns="http://www.w3.org/1999/xhtml" style="overflow: visible; color: rgb(90, 90, 90); font-size: 14px; line-height: 1.4; width: 100%; height: 100%; display: flex; flex-wrap: wrap; word-break: break-word; white-space: pre-wrap; text-align: right; place-content: flex-start flex-end; align-items: flex-start;">範圍三盤查完成率 80%</span></foreignObject></g></g><g x="660" y="505" transform="translate(660, 505)"><g width="200" height="26"><foreignObject overflow="visible" x="0" y="0" width="200" height="26" data-element-type="item-label" data-x="0" data-y="0" data-horizontal-align="LEFT" data-vertical-align="MIDDLE" data-indexes="5"><span xmlns="http://www.w3.org/1999/xhtml" style="overflow: visible; color: rgb(38, 38, 38); font-weight: bold; font-size: 18px; line-height: 1.4; width: 100%; height: 100%; display: flex; flex-wrap: wrap; word-break: break-word; white-space: pre-wrap; text-align: left; place-content: center flex-start; align-items: center;">2027 Q4</span></foreignObject></g><g x="0" y="30" transform="translate(0, 30)" width="200" height="40"><foreignObject overflow="visible" x="0" y="0" width="200" height="40" data-element-type="item-desc" data-x="0" data-y="0" data-horizontal-align="LEFT" data-vertical-align="TOP" data-word-wrap="true" data-indexes="5"><span xmlns="http://www.w3.org/1999/xhtml" style="overflow: visible; color: rgb(90, 90, 90); font-size: 14px; line-height: 1.4; width: 100%; height: 100%; display: flex; flex-wrap: wrap; word-break: break-word; white-space: pre-wrap; text-align: left; place-content: flex-start; align-items: flex-start;">全年度 2000 小時志工</span></foreignObject></g></g><polygon x="210" y="55" data-element-type="shape" width="10" height="8" fill="#1783FF" stroke="#1783FF" stroke-width="4" stroke-linecap="round" stroke-linejoin="round" transform="translate(210, 55)rotate(-90 5 4)" points="5,0 10,8 0,8"></polygon><polygon x="640" y="151" data-element-type="shape" width="10" height="8" fill="#00C9C9" stroke="#00C9C9" stroke-width="4" stroke-linecap="round" stroke-linejoin="round" transform="translate(640, 151)rotate(90 5 4)" points="5,0 10,8 0,8"></polygon><polygon x="210" y="247" data-element-type="shape" width="10" height="8" fill="#F0884D" stroke="#F0884D" stroke-width="4" stroke-linecap="round" stroke-linejoin="round" transform="translate(210, 247)rotate(-90 5 4)" points="5,0 10,8 0,8"></polygon><polygon x="640" y="343" data-element-type="shape" width="10" height="8" fill="#D580FF" stroke="#D580FF" stroke-width="4" stroke-linecap="round" stroke-linejoin="round" transform="translate(640, 343)rotate(90 5 4)" points="5,0 10,8 0,8"></polygon><polygon x="210" y="439" data-element-type="shape" width="10" height="8" fill="#7863FF" stroke="#7863FF" stroke-width="4" stroke-linecap="round" stroke-linejoin="round" transform="translate(210, 439)rotate(-90 5 4)" points="5,0 10,8 0,8"></polygon><polygon x="640" y="535" data-element-type="shape" width="10" height="8" fill="#60C42D" stroke="#60C42D" stroke-width="4" stroke-linecap="round" stroke-linejoin="round" transform="translate(640, 535)rotate(90 5 4)" points="5,0 10,8 0,8"></polygon></g></g></svg>